{
	"asset":{
		"generator":"Khronos glTF Blender I/O v4.0.44",
		"version":"2.0"
	},
	"extensionsUsed":[
		"KHR_materials_specular",
		"KHR_materials_ior"
	],
	"scene":0,
	"scenes":[
		{
			"name":"Scene",
			"nodes":[
				0
			]
		}
	],
	"nodes":[
		{
			"mesh":0,
			"name":"bench",
			"rotation":[
				0.7071068286895752,
				0,
				0,
				0.7071068286895752
			]
		}
	],
	"materials":[
		{
			"doubleSided":true,
			"extensions":{
				"KHR_materials_specular":{
					"specularColorFactor":[
						2.0,
						2.0,
						2.0
					]
				},
				"KHR_materials_ior":{
					"ior":1.4500000476837158
				}
			},
			"name":"Texture",
			"pbrMetallicRoughness":{
				"baseColorTexture":{
					"index":0
				},
				"metallicFactor":0,
				"roughnessFactor":0.8999999761581421
			}
		}
	],
	"meshes":[
		{
			"name":"bench",
			"primitives":[
				{
					"attributes":{
						"POSITION":0,
						"NORMAL":1,
						"TEXCOORD_0":2
					},
					"indices":3,
					"material":0
				}
			]
		}
	],
	"textures":[
		{
			"sampler":0,
			"source":0
		}
	],
	"images":[
		{
			"mimeType":"image/png",
			"name":"baked_mesh_tex0",
			"uri":"textures/baked_mesh_tex0.png"
		}
	],
	"accessors":[
		{
			"bufferView":0,
			"componentType":5126,
			"count":15260,
			"max":[
				0.265011727809906,
				0.6441331505775452,
				-1.934256843583171e-08
			],
			"min":[
				-0.2618398070335388,
				-0.6538892984390259,
				-0.4461492896080017
			],
			"type":"VEC3"
		},
		{
			"bufferView":1,
			"componentType":5126,
			"count":15260,
			"type":"VEC3"
		},
		{
			"bufferView":2,
			"componentType":5126,
			"count":15260,
			"type":"VEC2"
		},
		{
			"bufferView":3,
			"componentType":5123,
			"count":75000,
			"type":"SCALAR"
		}
	],
	"bufferViews":[
		{
			"buffer":0,
			"byteLength":183120,
			"byteOffset":0,
			"target":34962
		},
		{
			"buffer":0,
			"byteLength":183120,
			"byteOffset":183120,
			"target":34962
		},
		{
			"buffer":0,
			"byteLength":122080,
			"byteOffset":366240,
			"target":34962
		},
		{
			"buffer":0,
			"byteLength":150000,
			"byteOffset":488320,
			"target":34963
		}
	],
	"samplers":[
		{
			"magFilter":9729,
			"minFilter":9987
		}
	],
	"buffers":[
		{
			"byteLength":638320,
			"uri":"untitled.bin"
		}
	]
}
