{
	"asset":{
		"generator":"Khronos glTF Blender I/O v4.0.44",
		"version":"2.0"
	},
	"extensionsUsed":[
		"KHR_materials_specular",
		"KHR_materials_ior"
	],
	"scene":0,
	"scenes":[
		{
			"name":"Scene",
			"nodes":[
				0
			]
		}
	],
	"nodes":[
		{
			"mesh":0,
			"name":"barbell",
			"rotation":[
				0.7071068286895752,
				0,
				0,
				0.7071068286895752
			]
		}
	],
	"materials":[
		{
			"doubleSided":true,
			"extensions":{
				"KHR_materials_specular":{
					"specularColorFactor":[
						2.0,
						2.0,
						2.0
					]
				},
				"KHR_materials_ior":{
					"ior":1.4500000476837158
				}
			},
			"name":"Texture",
			"pbrMetallicRoughness":{
				"baseColorTexture":{
					"index":0
				},
				"metallicFactor":0,
				"roughnessFactor":0.8999999761581421
			}
		}
	],
	"meshes":[
		{
			"name":"barbell",
			"primitives":[
				{
					"attributes":{
						"POSITION":0,
						"NORMAL":1,
						"TEXCOORD_0":2
					},
					"indices":3,
					"material":0
				}
			]
		}
	],
	"textures":[
		{
			"sampler":0,
			"source":0
		}
	],
	"images":[
		{
			"mimeType":"image/png",
			"name":"baked_mesh_tex0",
			"uri":"textures/baked_mesh_tex0.png"
		}
	],
	"accessors":[
		{
			"bufferView":0,
			"componentType":5126,
			"count":11943,
			"max":[
				1.1224087476730347,
				0.2589867115020752,
				-5.717853923670191e-08
			],
			"min":[
				-1.0299752950668335,
				-0.1926453411579132,
				-0.45344236493110657
			],
			"type":"VEC3"
		},
		{
			"bufferView":1,
			"componentType":5126,
			"count":11943,
			"type":"VEC3"
		},
		{
			"bufferView":2,
			"componentType":5126,
			"count":11943,
			"type":"VEC2"
		},
		{
			"bufferView":3,
			"componentType":5123,
			"count":57282,
			"type":"SCALAR"
		}
	],
	"bufferViews":[
		{
			"buffer":0,
			"byteLength":143316,
			"byteOffset":0,
			"target":34962
		},
		{
			"buffer":0,
			"byteLength":143316,
			"byteOffset":143316,
			"target":34962
		},
		{
			"buffer":0,
			"byteLength":95544,
			"byteOffset":286632,
			"target":34962
		},
		{
			"buffer":0,
			"byteLength":114564,
			"byteOffset":382176,
			"target":34963
		}
	],
	"samplers":[
		{
			"magFilter":9729,
			"minFilter":9987
		}
	],
	"buffers":[
		{
			"byteLength":496740,
			"uri":"untitled.bin"
		}
	]
}
